<svg width="14" height="14" viewBox="0 0 14 14" fill="none" xmlns="http://www.w3.org/2000/svg">
<path fill-rule="evenodd" clip-rule="evenodd" d="M1.7071 0.292895C1.31658 -0.0976292 0.683414 -0.0976292 0.292889 0.292895C-0.0976349 0.683419 -0.0976349 1.31658 0.292889 1.70711L5.58578 7L0.29289 12.2929C-0.0976343 12.6834 -0.0976343 13.3166 0.29289 13.7071C0.683414 14.0976 1.31658 14.0976 1.7071 13.7071L7 8.41422L12.2929 13.7071C12.6834 14.0976 13.3166 14.0976 13.7071 13.7071C14.0976 13.3166 14.0976 12.6834 13.7071 12.2929L8.41421 7L13.7071 1.70711C14.0976 1.31658 14.0976 0.683419 13.7071 0.292895C13.3166 -0.0976292 12.6834 -0.0976292 12.2929 0.292895L7 5.58579L1.7071 0.292895Z" fill="#5E6982"/>
</svg>
