<?xml version="1.0" encoding="utf-8"?>
<!-- Generator: Adobe Illustrator 23.0.2, SVG Export Plug-In . SVG Version: 6.00 Build 0)  -->
<!DOCTYPE svg PUBLIC "-//W3C//DTD SVG 1.1//EN" "http://www.w3.org/Graphics/SVG/1.1/DTD/svg11.dtd" [
	<!ENTITY ns_extend "http://ns.adobe.com/Extensibility/1.0/">
	<!ENTITY ns_ai "http://ns.adobe.com/AdobeIllustrator/10.0/">
	<!ENTITY ns_graphs "http://ns.adobe.com/Graphs/1.0/">
	<!ENTITY ns_vars "http://ns.adobe.com/Variables/1.0/">
	<!ENTITY ns_imrep "http://ns.adobe.com/ImageReplacement/1.0/">
	<!ENTITY ns_sfw "http://ns.adobe.com/SaveForWeb/1.0/">
	<!ENTITY ns_custom "http://ns.adobe.com/GenericCustomNamespace/1.0/">
	<!ENTITY ns_adobe_xpath "http://ns.adobe.com/XPath/1.0/">
]>
<svg version="1.1" id="Camada_1" xmlns:x="&ns_extend;" xmlns:i="&ns_ai;" xmlns:graph="&ns_graphs;"
	 xmlns="http://www.w3.org/2000/svg" xmlns:xlink="http://www.w3.org/1999/xlink" x="0px" y="0px" viewBox="0 0 20.2 20.2"
	 style="enable-background:new 0 0 20.2 20.2;" xml:space="preserve">
<style type="text/css">
	.st0{fill:#818A9B;}
</style>
<metadata>
	<sfw  xmlns="&ns_sfw;">
		<slices></slices>
		<sliceSourceBounds  bottomLeftOrigin="true" height="20" width="20" x="0.1" y="3.9"></sliceSourceBounds>
	</sfw>
</metadata>
<path class="st0" d="M1.1,4.1c-0.5,0-1,0.4-1,1v13c0,1.1,0.9,2,2,2h13c0.5,0,1-0.5,1-1s-0.5-1-1-1h-12c-0.6,0-1-0.5-1-1v-12
	C2.1,4.5,1.7,4.1,1.1,4.1z M18.1,0.1h-12c-1.1,0-2,0.9-2,2v12c0,1.1,0.9,2,2,2h12c1.1,0,2-0.9,2-2v-12C20.1,1,19.2,0.1,18.1,0.1z
	 M16.1,9.1h-8c-0.6,0-1-0.4-1-1s0.4-1,1-1h8c0.5,0,1,0.4,1,1S16.7,9.1,16.1,9.1z M12.1,13.1h-4c-0.6,0-1-0.4-1-1s0.4-1,1-1h4
	c0.6,0,1,0.4,1,1S12.7,13.1,12.1,13.1z M16.1,5.1h-8c-0.6,0-1-0.4-1-1s0.4-1,1-1h8c0.5,0,1,0.4,1,1S16.7,5.1,16.1,5.1z"/>
</svg>
